# xmcd
#
# Track frame offsets: 
#        150
#        16072
#        27968
#        36943
#        50030
#        57985
#        68598
#        84118
#        100472
#        110824
#        120611
#        127751
#        145312
#        158231
#        171596
#        186080
#        199483
#
# Disc length: 2774 seconds
#
# Revision: 1
# Processed by: cddbd v1.5.1PL2 Copyright (c) Steve Scherf et al.
# Submitted via: ExactAudioCopy v0.95b3
#
DISCID=f00ad411
DTITLE=Doc Watson - Trouble In Mind: The Country Blues Collection, 196
DTITLE=4-1998
DYEAR=2003
DGENRE=Bluegrass
TTITLE0=Country Blues
TTITLE1=Sitting On The Top Of World
TTITLE2=Little Sadie
TTITLE3=Gambler's Yodel
TTITLE4=Rain Crow Bill
TTITLE5=My Little Woman, You're So Sweet
TTITLE6=Lost John
TTITLE7=Deep River Blues (On Stage)
TTITLE8=Georgie Buck
TTITLE9=Anniversary Blues (Blue Yodel #7)
TTITLE10=Memphis Blues
TTITLE11=Stackolee
TTITLE12=Worried Blues
TTITLE13=Spike Driver Blues
TTITLE14=Never No More Blues
TTITLE15=Honey Babe Blues
TTITLE16=White House Blues
EXTD=
EXTT0=
EXTT1=
EXTT2=
EXTT3=
EXTT4=
EXTT5=
EXTT6=
EXTT7=
EXTT8=
EXTT9=
EXTT10=
EXTT11=
EXTT12=
EXTT13=
EXTT14=
EXTT15=
EXTT16=
PLAYORDER=
